# xmcd
#
# Track frame offsets:
#	150
#	12475
#	25737
#	29906
#	43702
#	58392
#	75057
#	88273
#	100100
#	112644
#	124986
#	137298
#	151210
#	165026
#	185657
#	200533
#	211162
#	218026
#	237905
#	248987
#
# Disc length: 3505 seconds
#
# Revision: 1
# Processed by: cddbd v1.5.2PL0 Copyright (c) Steve Scherf et al.
# Submitted via: audiograbber 1.83.01
#
DISCID=040daf14
DTITLE=D' Gartehöckler - Jetzt goht's urchig [CD2)
DYEAR=1900
DGENRE=Ländler
TTITLE0=Helly-Hansen Träffe
TTITLE1=Im Hörnli bim Jasssä
TTITLE2=Am Stiere-Tisch
TTITLE3=Abschied vom Rössli
TTITLE4=Das Muntere Rehlein
TTITLE5=Vo de Chäsere z Schönegrund
TTITLE6=Pia
TTITLE7=s luschige Anneli uf em Heubode
TTITLE8=Bim Fyrabend Fänzel z'Engelberg
TTITLE9=Abendfrieden
TTITLE10=Am Jubiläum z'Brunne
TTITLE11=Am Entschligen-Dorfet
TTITLE12=im "Engel" z'Udligenswil
TTITLE13=Gartehöckler-Stimmig
TTITLE14=Kernser Älplermagaronä
TTITLE15=Dr Basch
TTITLE16=Urchigi Schwyzer
TTITLE17=Hip-Hop im Alpenland
TTITLE18=Mis B-Nussbaumerli
TTITLE19=Mc Chrystals
EXTD=
EXTT0=
EXTT1=
EXTT2=
EXTT3=
EXTT4=
EXTT5=
EXTT6=
EXTT7=
EXTT8=
EXTT9=
EXTT10=
EXTT11=
EXTT12=
EXTT13=
EXTT14=
EXTT15=
EXTT16=
EXTT17=
EXTT18=
EXTT19=
PLAYORDER=
